<svg width="32" height="32" viewBox="0 0 32 32" fill="none" xmlns="http://www.w3.org/2000/svg">
<circle cx="15.7345" cy="20.3048" r="9.32039" fill="#24E224" fill-opacity="0.2" stroke="#24E224" stroke-width="2"/>
<path d="M6.77813 15.0456C6.44675 15.4875 6.5363 16.1143 6.97813 16.4456C7.41995 16.777 8.04675 16.6875 8.37813 16.2456L7.57813 15.6456L6.77813 15.0456ZM15.7335 1.66504L16.6565 1.28042C16.5013 0.907777 16.1372 0.665039 15.7335 0.665039C15.3298 0.665039 14.9657 0.907777 14.8104 1.28042L15.7335 1.66504ZM8.32085 14.6553L7.52085 14.0553L8.32085 14.6553ZM23.1461 14.6553L22.3461 15.2553L23.0888 16.2456L23.8888 15.6456L24.6888 15.0456L23.9461 14.0553L23.1461 14.6553ZM7.57813 15.6456L8.37813 16.2456L9.12085 15.2553L8.32085 14.6553L7.52085 14.0553L6.77813 15.0456L7.57813 15.6456ZM8.32085 14.6553L9.12085 15.2553C12.1597 11.2035 14.7095 6.72265 16.6565 2.04965L15.7335 1.66504L14.8104 1.28042C12.9262 5.80242 10.4587 10.1382 7.52085 14.0553L8.32085 14.6553ZM15.7335 1.66504L14.8104 2.04965C16.7575 6.72265 19.3072 11.2035 22.3461 15.2553L23.1461 14.6553L23.9461 14.0553C21.0082 10.1382 18.5407 5.80242 16.6565 1.28042L15.7335 1.66504Z" fill="#24E224"/>
<path d="M11.0742 23.8004L15.7344 14.48L20.3946 23.8004M12.8218 20.6936L18.647 20.6936" stroke="#D9FFD9" stroke-width="2" stroke-linecap="round" stroke-linejoin="round"/>
</svg>
