<svg width="32" height="32" viewBox="0 0 32 32" fill="none" xmlns="http://www.w3.org/2000/svg">
<path fill-rule="evenodd" clip-rule="evenodd" d="M9.74133 10.344L10.1987 14.4613L9.27333 14.5347C8.64599 14.5846 8.05352 14.8435 7.59064 15.2699C7.12776 15.6963 6.82121 16.2655 6.72 16.8867C6.23689 19.8314 6.23689 22.8352 6.72 25.78C6.82094 26.4014 7.12737 26.971 7.59027 27.3976C8.05318 27.8242 8.6458 28.0833 9.27333 28.1333L11.268 28.2933C14.4173 28.544 17.5827 28.544 20.732 28.2933L22.7267 28.1333C23.354 28.0834 23.9465 27.8245 24.4094 27.3981C24.8722 26.9717 25.1788 26.4025 25.28 25.7813C25.7631 22.8366 25.7631 19.8328 25.28 16.888C25.1788 16.2669 24.8722 15.6976 24.4094 15.2712C23.9465 14.8448 23.354 14.586 22.7267 14.536L21.8013 14.4627L22.2587 10.3453C22.312 9.85822 22.312 9.37155 22.2587 8.88533L22.228 8.612C22.057 7.07984 21.3272 5.66448 20.1782 4.63658C19.0292 3.60869 17.5417 3.04041 16 3.04041C14.4583 3.04041 12.9708 3.60869 11.8218 4.63658C10.6728 5.66448 9.94299 7.07984 9.772 8.612L9.74133 8.88533C9.68788 9.37053 9.68788 9.86013 9.74133 10.3453M16.4987 5.06667C15.94 5.00098 15.3739 5.04642 14.8328 5.20036C14.2918 5.3543 13.7865 5.61371 13.3461 5.96365C12.9057 6.3136 12.5388 6.74718 12.2666 7.23944C11.9944 7.73171 11.8222 8.27294 11.76 8.832L11.7293 9.10533C11.6922 9.44387 11.6922 9.78546 11.7293 10.124L12.1947 14.3093C14.728 14.1467 17.2707 14.1467 19.8053 14.3093L20.2707 10.1227C20.3077 9.78457 20.3077 9.44343 20.2707 9.10533L20.24 8.832C20.1336 7.87381 19.7059 6.97989 19.0265 6.29589C18.3471 5.6119 17.4561 5.17948 16.4987 5.06667ZM16 19.3333C15.4696 19.3333 14.9609 19.544 14.5858 19.9191C14.2107 20.2942 14 20.8029 14 21.3333C14 21.8638 14.2107 22.3725 14.5858 22.7475C14.9609 23.1226 15.4696 23.3333 16 23.3333C16.5304 23.3333 17.0391 23.1226 17.4142 22.7475C17.7893 22.3725 18 21.8638 18 21.3333C18 20.8029 17.7893 20.2942 17.4142 19.9191C17.0391 19.544 16.5304 19.3333 16 19.3333Z" fill="white"/>
</svg>
