<svg width="32" height="32" viewBox="0 0 32 32" fill="none" xmlns="http://www.w3.org/2000/svg">
<path d="M18.496 6.29279L24.153 11.9498C24.3405 12.1373 24.4458 12.3916 24.4458 12.6568C24.4458 12.922 24.3405 13.1763 24.153 13.3638L16.375 21.1418L14.253 21.8488L12.839 23.2638C12.6515 23.4513 12.3972 23.5566 12.132 23.5566C11.8668 23.5566 11.6125 23.4513 11.425 23.2638L7.182 19.0208C6.99453 18.8333 6.88921 18.579 6.88921 18.3138C6.88921 18.0486 6.99453 17.7943 7.182 17.6068L8.596 16.1928L9.303 14.0708L17.082 6.29279C17.2695 6.10532 17.5238 6 17.789 6C18.0542 6 18.3085 6.10532 18.496 6.29279ZM19.203 9.82879L12.839 16.1928L14.253 17.6068L20.617 11.2428L19.203 9.82879ZM6.829 20.7888L9.657 23.6168L8.243 25.0318L4 23.6168L6.829 20.7888Z" fill="#96ACDB"/>
<path d="M26 22.1958L27.7292 23.2417C28.0458 23.4333 28.4333 23.15 28.35 22.7917L27.8917 20.825L29.4208 19.5C29.7 19.2583 29.55 18.8 29.1833 18.7708L27.1708 18.6L26.3833 16.7417C26.2417 16.4042 25.7583 16.4042 25.6167 16.7417L24.8292 18.5958L22.8167 18.7667C22.45 18.7958 22.3 19.2542 22.5792 19.4958L24.1083 20.8208L23.65 22.7875C23.5667 23.1458 23.9542 23.4292 24.2708 23.2375L26 22.1958Z" fill="#E5DDC2"/>
<path d="M19 27.3175L20.0375 27.945C20.2275 28.06 20.46 27.89 20.41 27.675L20.135 26.495L21.0525 25.7C21.22 25.555 21.13 25.28 20.91 25.2625L19.7025 25.16L19.23 24.045C19.145 23.8425 18.855 23.8425 18.77 24.045L18.2975 25.1575L17.09 25.26C16.87 25.2775 16.78 25.5525 16.9475 25.6975L17.865 26.4925L17.59 27.6725C17.54 27.8875 17.7725 28.0575 17.9625 27.9425L19 27.3175Z" fill="#E5DDC2"/>
<path d="M7 10.1958L8.72917 11.2417C9.04583 11.4333 9.43333 11.15 9.35 10.7917L8.89167 8.825L10.4208 7.5C10.7 7.25833 10.55 6.8 10.1833 6.77083L8.17083 6.6L7.38333 4.74167C7.24167 4.40417 6.75833 4.40417 6.61667 4.74167L5.82917 6.59583L3.81667 6.76667C3.45 6.79583 3.3 7.25417 3.57917 7.49583L5.10833 8.82083L4.65 10.7875C4.56667 11.1458 4.95417 11.4292 5.27083 11.2375L7 10.1958Z" fill="#E5DDC2"/>
</svg>
