<svg width="32" height="32" viewBox="0 0 32 32" fill="none" xmlns="http://www.w3.org/2000/svg">
<path fill-rule="evenodd" clip-rule="evenodd" d="M14.044 5.08127C13.4871 5.16225 12.9517 5.35261 12.4686 5.64139C11.9856 5.93017 11.5644 6.31165 11.2294 6.76388C10.8944 7.21611 10.6522 7.73014 10.5167 8.27638C10.3812 8.82261 10.3552 9.39025 10.44 9.94661L10.48 10.2173C10.5333 10.5551 10.6218 10.8831 10.7453 11.2013L11.9653 14.3239C14.8844 14.1256 17.8141 14.143 20.7307 14.3759L22.7253 14.5359C23.3525 14.5858 23.9448 14.8445 24.4076 15.2706C24.8705 15.6968 25.1772 16.2657 25.2787 16.8866C25.7618 19.8314 25.7618 22.8352 25.2787 25.7799C25.1774 26.4011 24.8709 26.9703 24.408 27.3967C23.9451 27.8231 23.3527 28.082 22.7253 28.1319L20.7307 28.2919C17.581 28.5434 14.4163 28.5434 11.2667 28.2919L9.27199 28.1319C8.64465 28.082 8.05217 27.8231 7.5893 27.3967C7.12642 26.9703 6.81987 26.4011 6.71866 25.7799C6.23555 22.8352 6.23555 19.8314 6.71866 16.8866C6.81965 16.265 7.12628 15.6953 7.58945 15.2686C8.05262 14.842 8.64555 14.583 9.27332 14.5333L9.88266 14.4853L8.88266 11.9279C8.70625 11.4738 8.58016 11.0016 8.50666 10.5199L8.46532 10.2479C8.23339 8.72346 8.57167 7.16699 9.41545 5.8763C10.2592 4.58562 11.5493 3.65135 13.0387 3.25224C14.5282 2.85313 16.1126 3.01721 17.4886 3.71307C18.8647 4.40894 19.9359 5.58774 20.4973 7.02394L20.5973 7.28127C20.7751 7.73639 20.9009 8.20616 20.9747 8.69061L21.1627 9.92794C21.1759 10.0145 21.172 10.1029 21.1511 10.188C21.1302 10.273 21.0927 10.3531 21.0408 10.4237C20.9889 10.4943 20.9237 10.554 20.8487 10.5993C20.7737 10.6446 20.6906 10.6748 20.604 10.6879L19.9453 10.7879C19.8587 10.8012 19.7704 10.7973 19.6853 10.7764C19.6002 10.7555 19.5201 10.718 19.4495 10.6661C19.379 10.6142 19.3193 10.5489 19.274 10.474C19.2286 10.399 19.1985 10.3159 19.1853 10.2293L18.9987 8.99194C18.9468 8.65529 18.8583 8.32532 18.7347 8.00794L18.6347 7.75194C18.2838 6.85394 17.6391 6.10124 16.8057 5.61651C15.9724 5.13178 14.9994 4.94359 14.0453 5.08261M16 19.3333C15.4696 19.3333 14.9608 19.544 14.5858 19.9191C14.2107 20.2941 14 20.8028 14 21.3333C14 21.8637 14.2107 22.3724 14.5858 22.7475C14.9608 23.1226 15.4696 23.3333 16 23.3333C16.5304 23.3333 17.0391 23.1226 17.4142 22.7475C17.7893 22.3724 18 21.8637 18 21.3333C18 20.8028 17.7893 20.2941 17.4142 19.9191C17.0391 19.544 16.5304 19.3333 16 19.3333Z" fill="white"/>
</svg>
